<svg width="34" height="28" viewBox="0 0 34 28" fill="none" xmlns="http://www.w3.org/2000/svg">
<path d="M30.8302 0.000187255H14.1803C12.9191 0.00770376 11.7052 0.481128 10.7719 1.32945L10.6015 1.51691L0.376401 14.2642C0.103339 14.6036 -0.0293931 15.0347 0.00547032 15.4689C0.0403337 15.9031 0.240145 16.3075 0.563862 16.599L10.789 25.9379C11.7223 26.7862 12.9362 27.2597 14.1974 27.2672H30.8473C31.676 27.2717 32.4728 26.948 33.0636 26.3668C33.6543 25.7857 33.991 24.9942 34 24.1656V3.10181C33.9955 2.69001 33.91 2.28313 33.7483 1.90439C33.5866 1.52565 33.3519 1.18247 33.0575 0.894458C32.7632 0.606441 32.415 0.379225 32.0328 0.225785C31.6507 0.0723452 31.242 -0.00431308 30.8302 0.000187255ZM30.5916 23.8588H14.1803C13.758 23.8577 13.3511 23.6998 13.0385 23.4157L3.95519 15.1504L13.1237 3.78348C13.4235 3.54292 13.7959 3.41079 14.1803 3.40856H30.5916V23.8588Z" fill="white"/>
<path d="M15.7482 18.252C15.9066 18.4118 16.0951 18.5385 16.3028 18.6251C16.5104 18.7116 16.7332 18.7561 16.9581 18.7561C17.1831 18.7561 17.4059 18.7116 17.6135 18.6251C17.8212 18.5385 18.0097 18.4118 18.1681 18.252L20.3665 16.0366L22.5649 18.252C22.7233 18.4118 22.9118 18.5385 23.1195 18.6251C23.3272 18.7116 23.5499 18.7561 23.7749 18.7561C23.9999 18.7561 24.2226 18.7116 24.4303 18.6251C24.638 18.5385 24.8264 18.4118 24.9849 18.252C25.1446 18.0936 25.2714 17.9051 25.3579 17.6975C25.4444 17.4898 25.489 17.267 25.489 17.0421C25.489 16.8171 25.4444 16.5943 25.3579 16.3867C25.2714 16.179 25.1446 15.9905 24.9849 15.8321L22.7694 13.6337L24.9849 11.4353C25.3058 11.1144 25.4861 10.6791 25.4861 10.2253C25.4861 9.77149 25.3058 9.33625 24.9849 9.01535C24.664 8.69444 24.2287 8.51416 23.7749 8.51416C23.3211 8.51416 22.8858 8.69444 22.5649 9.01535L20.3665 11.2308L18.1681 9.01535C17.8472 8.69444 17.412 8.51416 16.9581 8.51416C16.5043 8.51416 16.0691 8.69444 15.7482 9.01535C15.4273 9.33625 15.247 9.77149 15.247 10.2253C15.247 10.6791 15.4273 11.1144 15.7482 11.4353L17.9636 13.6337L15.7482 15.8321C15.5884 15.9905 15.4617 16.179 15.3751 16.3867C15.2886 16.5943 15.2441 16.8171 15.2441 17.0421C15.2441 17.267 15.2886 17.4898 15.3751 17.6975C15.4617 17.9051 15.5884 18.0936 15.7482 18.252Z" fill="white"/>
</svg>
